<?xml version="1.0" encoding="UTF-8"?>
<!-- Generator: visioncortex VTracer 0.6.4 -->
<svg version="1.1" xmlns="http://www.w3.org/2000/svg" width="3741" height="4060">
<path d="M0 0 C2.54521794 1.47316339 5.03741618 3.00852254 7.50830078 4.60302734 C11.36285628 7.08088534 15.2691765 9.47687759 19.1640625 11.890625 C20.05867188 12.4472583 20.95328125 13.0038916 21.875 13.57739258 C31.59645015 19.60643008 41.48283768 25.34228063 51.38330078 31.07080078 C54.35490618 32.79382444 57.32104292 34.52584286 60.28515625 36.26171875 C72.09767497 43.17866701 83.95525079 50.0132079 95.84619141 56.79418945 C106.98529767 63.1471388 118.09323108 69.55350046 129.19628906 75.96923828 C133.51653893 78.46501844 137.83829237 80.95818797 142.16015625 83.45117188 C145.40902746 85.32522063 148.65763882 87.19971928 151.90625 89.07421875 C156.26471638 91.58881936 160.62418441 94.10167161 164.984375 96.61328125 C176.4685507 103.23035392 187.93603144 109.87446477 199.37988281 116.56103516 C209.94026532 122.72731554 220.53533016 128.8330845 231.13183594 134.93701172 C236.56066192 138.06492648 241.98725531 141.19670948 247.4140625 144.328125 C249.58071833 145.57814379 251.747385 146.82814378 253.9140625 148.078125 C292.9140625 170.578125 292.9140625 170.578125 296.16357422 172.45288086 C298.33182514 173.7037698 300.50011947 174.95458352 302.66845703 176.20532227 C308.06124165 179.31610835 313.45328343 182.42816738 318.84375 185.54296875 C330.01855352 191.99831642 341.20560553 198.43141844 352.4140625 204.828125 C366.84532039 213.06409559 381.2366248 221.36861368 395.62304688 229.68261719 C398.84474525 231.54415172 402.06677329 233.40511339 405.2890625 235.265625 C406.35511719 235.88115234 407.42117188 236.49667969 408.51953125 237.13085938 C415.92123288 241.40038835 423.33770642 245.64337874 430.76037598 249.87628174 C441.03111137 255.73344156 451.27193452 261.63868482 461.47705078 267.60961914 C468.77335188 271.87718706 476.08931167 276.10959401 483.4140625 280.328125 C498.12994039 288.80711279 512.80324659 297.35787711 527.44921875 305.95703125 C542.33454561 314.69600543 557.25062437 323.37758145 572.21240234 331.98535156 C577.61549865 335.09520141 583.01453061 338.21209202 588.4140625 341.328125 C590.58332518 342.57944123 592.752596 343.83074332 594.921875 345.08203125 C599.23007901 347.56743402 603.53729039 350.05454477 607.84375 352.54296875 C619.01855352 358.99831642 630.20560553 365.43141844 641.4140625 371.828125 C653.69647539 378.83774205 665.95164045 385.8938492 678.19628906 392.96923828 C683.60076895 396.09137105 689.00753662 399.20953704 694.4140625 402.328125 C696.58074 403.57810622 698.74740667 404.82810621 700.9140625 406.078125 C701.9865625 406.696875 703.0590625 407.315625 704.1640625 407.953125 C813.0390625 470.765625 813.0390625 470.765625 921.9140625 533.578125 C922.98672363 534.19695557 924.05938477 534.81578613 925.16455078 535.45336914 C927.32963321 536.70248018 929.49467232 537.95166629 931.65966797 539.20092773 C937.10021956 542.34014809 942.54153466 545.47803063 947.984375 548.61328125 C950.16932686 549.8722986 952.35422284 551.13141294 954.5390625 552.390625 C955.61599365 553.01122803 956.6929248 553.63183105 957.80249023 554.27124023 C964.04794036 557.87414927 970.27893045 561.50058417 976.49951172 565.14624023 C986.6200176 571.07628899 996.80543971 576.87121455 1007.05444336 582.57617188 C1015.27657759 587.16360124 1023.41457292 591.88407961 1031.53515625 596.6484375 C1038.2922815 600.60706789 1045.08758627 604.49045333 1051.9140625 608.328125 C1060.73438402 613.28932077 1069.49318855 618.34753844 1078.22705078 623.45922852 C1088.83442143 629.66639693 1099.48230728 635.80254162 1110.13183594 641.93701172 C1115.56066192 645.06492648 1120.98725531 648.19670948 1126.4140625 651.328125 C1128.58071833 652.57814379 1130.747385 653.82814378 1132.9140625 655.078125 C1145.9140625 662.578125 1158.9140625 670.078125 1171.9140625 677.578125 C1172.98672363 678.19695557 1174.05938477 678.81578613 1175.16455078 679.45336914 C1177.32963321 680.70248018 1179.49467232 681.95166629 1181.65966797 683.20092773 C1187.10021956 686.34014809 1192.54153466 689.47803063 1197.984375 692.61328125 C1209.4685507 699.23035392 1220.93603144 705.87446477 1232.37988281 712.56103516 C1244.03065435 719.36400123 1255.72309994 726.09454686 1267.4140625 732.828125 C1281.09046111 740.7052436 1294.75683433 748.59789381 1308.38208008 756.56323242 C1315.64640288 760.80665348 1322.93347515 765.0093809 1330.2265625 769.203125 C1340.30167802 774.9999319 1350.31119145 780.90085875 1360.30126953 786.84277344 C1370.17354029 792.705993 1380.11359116 798.44681773 1390.06640625 804.171875 C1403.86211803 812.10942302 1417.59676478 820.1511657 1431.2890625 828.265625 C1464.76627377 848.1285627 1464.76627377 848.1285627 1499.2265625 866.203125 C1514.95046712 873.93358684 1514.95046712 873.93358684 1517.4140625 879.828125 C1517.72497559 882.11540222 1517.72497559 882.11540222 1517.81054688 884.64916992 C1517.84668091 885.5981868 1517.88281494 886.54720367 1517.92004395 887.52497864 C1517.94900757 888.54669662 1517.97797119 889.56841461 1518.0078125 890.62109375 C1518.0633429 892.23034981 1518.0633429 892.23034981 1518.11999512 893.87211609 C1518.23000336 897.19055133 1518.32484496 900.50907042 1518.4140625 903.828125 C1518.44032715 904.7786676 1518.4665918 905.72921021 1518.49365234 906.70855713 C1518.6745289 913.5185897 1518.80039291 920.32917852 1518.9140625 927.140625 C1518.94391235 928.88350296 1518.94391235 928.88350296 1518.97436523 930.66159058 C1520.11081466 997.9514467 1520.49087277 1065.25314468 1520.89418378 1132.55057633 C1520.91034082 1135.24563155 1520.92655775 1137.9406864 1520.94277835 1140.63574123 C1521.43717131 1222.91986918 1521.73935519 1305.2041273 1521.9540792 1387.48941839 C1521.97176879 1394.2658459 1521.98977008 1401.04227253 1522.00789642 1407.81869888 C1522.2880577 1512.74414788 1522.47653574 1617.6695996 1521.99997972 2191.75192992 C1521.98197024 2198.13833912 1521.96426049 2204.52474909 1521.94669342 2210.91115952 C1521.73632285 2287.21715742 1521.43438281 2363.52192815 1520.92638907 2439.82657421 C1520.91033936 2442.23811208 1520.89435283 2444.64965036 1520.87837338 2447.0611887 C1520.07352746 2568.30100915 1520.07352746 2568.30100915 1518.9140625 2620.765625 C1518.89609619 2621.60339478 1518.87812988 2622.44116455 1518.85961914 2623.30432129 C1518.77974119 2626.90490277 1518.68058377 2630.50193328 1518.546875 2634.10107422 C1518.45851284 2636.58073742 1518.41146747 2639.06222543 1518.40625 2641.54345703 C1518.20650627 2649.62286407 1518.20650627 2649.62286407 1516.14916992 2652.75195312 C1514.33794742 2654.40689346 1512.53662961 2655.59835696 1510.4140625 2656.828125 C1509.66205566 2657.29718262 1508.91004883 2657.76624023 1508.13525391 2658.24951172 C1505.53230731 2659.82185528 1502.89079278 2661.29962894 1500.2265625 2662.765625 C1499.23479004 2663.31919678 1498.24301758 2663.87276855 1497.22119141 2664.44311523 C1488.69713886 2669.17745397 1480.09538439 2673.76708645 1471.48883057 2678.34902954 C1461.21108341 2683.82198838 1451.08011971 2689.51639901 1440.99902344 2695.34228516 C1436.42500454 2697.97143882 1431.82376432 2700.55230093 1427.2265625 2703.140625 C1401.73036262 2717.52359577 1376.47997996 2732.33704272 1351.2265625 2747.140625 C1350.62416748 2747.49372742 1350.02177246 2747.84682983 1349.40112305 2748.21063232 C1343.13874993 2751.88165701 1336.87759562 2755.55472958 1330.62034607 2759.23448181 C1318.29832965 2766.48045509 1305.9796983 2773.72264116 1293.48779297 2780.67333984 C1279.43174638 2788.50064151 1265.50071817 2796.51166876 1251.67675781 2804.7421875 C1240.72950782 2811.25388696 1229.70141126 2817.62020923 1218.65673828 2823.96484375 C1213.19785639 2827.1015842 1207.7431209 2830.24550688 1202.2890625 2833.390625 C1201.21132568 2834.01203369 1200.13358887 2834.63344238 1199.02319336 2835.27368164 C1191.8078148 2839.43750768 1184.60685519 2843.62542147 1177.4140625 2847.828125 C1163.68351062 2855.85080011 1149.90328284 2863.78670759 1136.12304688 2871.72363281 C1132.84475188 2873.61210993 1129.56677765 2875.50114166 1126.2890625 2877.390625 C1124.67064453 2878.32358398 1124.67064453 2878.32358398 1123.01953125 2879.27539062 C1115.84534248 2883.41500977 1108.68850687 2887.58344919 1101.5390625 2891.765625 C1091.72267792 2897.50565921 1081.85940756 2903.16135837 1071.98144531 2908.79443359 C1060.84253746 2915.14736395 1049.7347367 2921.55359131 1038.63183594 2927.96923828 C1032.14281154 2931.71790534 1025.650693 2935.46121167 1019.15917969 2939.20556641 C1013.76657936 2942.31630839 1008.37468428 2945.42825827 1002.984375 2948.54296875 C991.17776766 2955.36315137 979.3537925 2962.1513576 967.50933838 2968.90548706 C959.45142947 2973.50206775 951.41993477 2978.14145132 943.4140625 2982.828125 C931.31971057 2989.90683656 919.15351898 2996.85733502 906.97851562 3003.79589844 C901.70312955 3006.80283244 896.43171812 3009.81672117 891.16003418 3012.83013916 C888.24487592 3014.4964243 885.32945587 3016.16225127 882.4140625 3017.828125 C881.24739458 3018.49478948 880.08072791 3019.16145614 878.9140625 3019.828125 C876.58072917 3021.16145833 874.24739583 3022.49479167 871.9140625 3023.828125 C871.33657257 3024.15811996 870.75908264 3024.48811493 870.16409302 3024.82810974 C868.99732713 3025.49483165 867.83055874 3026.16154918 866.66378784 3026.82826233 C863.74861872 3028.49404784 860.83349303 3030.15990927 857.91845703 3031.82592773 C852.65063055 3034.83652813 847.38248691 3037.84656647 842.11273193 3040.85379028 C829.12445119 3048.26571001 816.15072421 3055.70182382 803.20263672 3063.18383789 C794.69800451 3068.09520829 786.17349772 3072.97118306 777.64355469 3077.83837891 C769.22038956 3082.6453039 760.81116964 3087.47578207 752.4140625 3092.328125 C743.42860688 3097.52045033 734.42760953 3102.68478663 725.4140625 3107.828125 C713.13153403 3114.83753827 700.87648328 3121.89384994 688.63183594 3128.96923828 C683.22735601 3132.09137107 677.82056143 3135.20949026 672.4140625 3138.328125 C670.80724609 3139.2552832 670.80724609 3139.2552832 669.16796875 3140.20117188 C663.72760175 3143.34034874 658.28643295 3146.47812129 652.84375 3149.61328125 C639.40988798 3157.35347324 625.99697289 3165.12823167 612.61425781 3172.95654297 C610.39268525 3174.25579345 608.17074536 3175.55439471 605.94824219 3176.85205078 C592.88530695 3184.4797812 579.83827079 3192.13364868 566.8515625 3199.890625 C565.3821521 3200.76448853 565.3821521 3200.76448853 563.88305664 3201.65600586 C557.87628947 3205.25697652 552.03849683 3209.04487466 546.265625 3213.01074219 C543.25831595 3214.92738676 540.19616409 3216.48648627 536.9765625 3218.015625 C530.715541 3221.03198453 524.91101869 3224.5533535 519.0390625 3228.265625 C495.4324598 3243.1112111 495.4324598 3243.1112111 483.4140625 3244.828125 C481.1277681 3241.3986834 480.77842197 3238.62399291 480.3515625 3234.640625 C480.27499324 3233.92914652 480.19842397 3233.21766804 480.11953443 3232.4846296 C479.49906444 3226.30466479 479.1339051 3220.13873466 478.8894062 3213.9332962 C478.82689831 3212.38083853 478.82689831 3212.38083853 478.76312763 3210.79701808 C478.28514298 3198.31261026 478.06752677 3185.82436056 477.87106323 3173.33288574 C477.85030644 3172.06354421 477.82954965 3170.79420268 477.80816387 3169.48639625 C477.3756444 3142.83238546 477.20238997 3116.17912337 477.11485749 3089.52196288 C477.09477216 3083.60929097 477.07116355 3077.696633 477.04799118 3071.78397259 C476.98612256 3055.91703345 476.93329423 3040.05006823 476.88176301 3024.18309274 C476.85930262 3017.2892986 476.83569065 3010.3955086 476.8119958 3003.50171861 C476.53131339 2921.83187068 476.35391442 2840.16210081 476.28460065 2572.49656248 C476.28894565 2547.57516882 476.28855993 2522.65377937 476.28414539 2497.73238575 C476.26927475 2413.55648051 476.26509274 2329.38054358 476.8119958 2051.28982988 C476.83829674 2042.74010232 476.86427352 2034.19037416 476.88909674 2025.64064217 C477.26592706 1895.87091364 477.26592706 1895.87091364 477.88623047 1852.39257812 C477.89570887 1851.71372948 477.90518728 1851.03488084 477.9149529 1850.33546102 C478.11419845 1836.14693878 478.43690447 1821.96387915 478.884552 1807.78112793 C478.92178466 1806.55870659 478.95901731 1805.33628526 478.99737823 1804.07682085 C479.96501751 1775.27716999 479.96501751 1775.27716999 482.4140625 1772.828125 C488.930016 1773.14298987 494.06557483 1775.72555814 499.8515625 1778.578125 C500.85509766 1779.06619629 501.85863281 1779.55426758 502.89257812 1780.05712891 C520.1435809 1788.53520873 536.86612581 1798.0185038 553.5703125 1807.515625 C558.59969253 1810.37307303 563.64828304 1813.19483354 568.70141602 1816.01000977 C579.00233951 1821.75084065 589.22496361 1827.60724586 599.39428711 1833.57788086 C606.51909679 1837.75055961 613.69953014 1841.81283251 620.9140625 1845.828125 C631.12408442 1851.51338587 641.23482909 1857.35228253 651.31640625 1863.26171875 C657.66452865 1866.98147412 664.03768363 1870.65707749 670.4140625 1874.328125 C679.75282108 1879.70704474 689.07046709 1885.1207203 698.375 1890.55859375 C706.80001802 1895.47871582 715.24968572 1900.35538086 723.70532227 1905.22265625 C729.95360574 1908.82211467 736.1854414 1912.44776353 742.40380859 1916.09863281 C755.29766686 1923.66365617 768.33220928 1930.95410516 781.42138672 1938.17382812 C783.99753138 1939.59787415 786.56895018 1941.02967708 789.13671875 1942.46875 C795.87622824 1946.24339775 802.64186025 1949.96096533 809.45703125 1953.59765625 C810.07978439 1953.93014374 810.70253754 1954.26263123 811.34416199 1954.60519409 C814.45088134 1956.26291936 817.5596245 1957.9166746 820.67163086 1959.56445312 C839.71402295 1969.69609393 839.71402295 1969.69609393 842.4140625 1977.828125 C844.69853576 1987.35178953 846.02565304 1996.76391873 846.58836365 2006.54377747 C846.64761813 2007.53227737 846.64761813 2007.53227737 846.70806967 2008.54074696 C847.95337862 2029.88871591 847.6754368 2051.2967481 847.6315347 2072.67126811 C847.62069771 2079.05645714 847.62173184 2085.44164657 847.6212616 2091.82684326 C847.61891494 2102.85902258 847.60946044 2113.89117584 847.59495735 2124.92334557 C847.57980762 2136.49386301 847.56938402 2148.06437058 847.56487846 2159.63489723 C847.56445456 2160.72119193 847.56445456 2160.72119193 847.56402209 2161.82943198 C847.5626171 2165.50903633 847.56130514 2169.1886407 847.560036 2172.8682451 C847.55097821 2198.84812441 847.53341202 2224.82799124 847.51000977 2250.80786133 C847.5086022 2252.37387237 847.50719481 2253.93988342 847.5057876 2255.50589446 C847.5047412 2256.66973306 847.5047412 2256.66973306 847.50367366 2257.85708356 C847.50014508 2261.78212309 847.49662081 2265.70716261 847.49310303 2269.63220215 C847.49240457 2270.41042968 847.49170611 2271.1886572 847.49098648 2271.99046738 C847.4747998 2290.07347745 847.46118242 2308.15648913 847.44848633 2326.23950195 C847.44794021 2327.01445174 847.4473941 2327.78940154 847.44683143 2328.58783466 C847.43436258 2346.31352142 847.42310951 2364.03920841 847.41422939 2381.76489735 C847.413854 2382.51177142 847.41347861 2383.25864549 847.41309184 2384.02815211 C847.40972391 2390.75002235 847.40640503 2397.47189261 847.4033417 2404.193763 C847.39573008 2420.88893979 847.38519622 2437.58410566 847.36715288 2454.27927471 C847.35459358 2465.91034461 847.34543551 2477.54141199 847.33958752 2489.17248734 C847.33628011 2495.45666067 847.33131985 2501.74082097 847.32177353 2508.02498817 C844.8397897 2553.95199096 844.8397897 2553.95199096 851.4140625 2598.828125 C855.31153389 2600.77686069 859.29756301 2599.79550238 863.4140625 2598.828125 C875.16075856 2594.09681686 885.99950106 2587.08258975 896.875 2580.66796875 C903.64412729 2576.67956702 910.46224277 2572.77901991 917.2890625 2568.890625 C919.65911306 2567.53951617 922.02885887 2566.18787383 924.3984375 2564.8359375 C924.98362152 2564.50208542 925.56880554 2564.16823334 926.17172241 2563.82426453 C932.30481458 2560.3231801 938.42326122 2556.79681619 944.5390625 2553.265625 C945.60511719 2552.65009766 946.67117187 2552.03457031 947.76953125 2551.40039062 C950.98463773 2549.54342306 954.19941628 2547.68588921 957.4140625 2545.828125 C971.31834829 2537.79275108 985.2344123 2529.77909502 999.18200684 2521.81915283 C1009.80391473 2515.75646527 1020.40392151 2509.65642231 1030.9921875 2503.53515625 C1035.267694 2501.06406944 1039.54918688 2498.60386998 1043.8359375 2496.15234375 C1056.52193257 2488.88646648 1069.0900849 2481.45800419 1081.55029297 2473.81298828 C1087.13121692 2470.39509742 1092.7373346 2467.04414495 1098.4296875 2463.81640625 C1125.49169233 2450.39495008 1125.49169233 2450.39495008 1147.4140625 2430.828125 C1150.56788 2417.05851658 1150.51731051 2402.46080993 1150.9419117 2388.40336514 C1150.96234534 2387.74485905 1150.98277897 2387.08635297 1151.00383181 2386.40789216 C1151.4854736 2370.81622046 1151.7612734 2355.22172006 1151.96847534 2339.62428284 C1151.97885256 2338.86059158 1151.98922978 2338.09690032 1151.99992146 2337.31006691 C1152.61253368 2292.05322333 1152.5577529 2246.79363059 1152.54573108 2201.53353936 C1152.54262352 2189.09014645 1152.54488741 2176.64675567 1152.54750527 2164.20336294 C1152.55273928 2139.30636565 1152.55317832 2114.40937057 1152.55035782 2089.51237297 C1152.54764538 2065.55623279 1152.54661116 2041.60009364 1152.54787827 2017.64395332 C1152.54795575 2016.1282646 1152.5480329 2014.61257587 1152.54810974 2013.09688714 C1152.5484203 2007.00341872 1152.54873898 2000.9099503 1152.5490695 1994.81648188 C1152.54998563 1977.79314665 1152.55055687 1960.76981142 1152.55085564 1943.74647617 C1152.55086928 1942.97186983 1152.55088293 1942.19726348 1152.55089699 1941.39918422 C1152.55130509 1916.78823488 1152.55018537 1892.17728587 1152.54800606 1867.56633663 C1152.54793581 1866.77032905 1152.54786556 1865.97432147 1152.54779318 1865.15419244 C1152.54664875 1852.23414854 1152.54542905 1839.31410465 1152.54420301 1826.39406075 C1152.539344 1775.13469523 1152.5395772 1723.87533231 1152.54443359 1672.6159668 C1152.54565511 1659.68160216 1152.54686629 1646.74723753 1152.54800606 1633.81287289 C1152.54807651 1633.01610499 1152.54814695 1632.21933709 1152.54821954 1631.39842472 C1152.55037998 1606.79371327 1152.55128921 1582.18900204 1152.55085564 1557.5842905 C1152.55084205 1556.81050929 1152.55082847 1556.03672808 1152.55081447 1555.23949895 C1152.55050182 1538.24432829 1152.54986784 1521.24915766 1152.54894513 1504.25398703 C1152.54861609 1498.17190253 1152.548303 1492.08981804 1152.54799442 1486.00773355 C1152.54791703 1484.49514958 1152.5478383 1482.98256562 1152.54775823 1481.46998165 C1152.54649355 1457.51696334 1152.54790003 1433.56394618 1152.55060837 1409.61092802 C1152.55338388 1384.79272265 1152.55231711 1359.9745199 1152.54707707 1335.1563149 C1152.54439758 1322.14450078 1152.54328562 1309.13269048 1152.54672623 1296.12087631 C1152.6349977 1234.20515262 1152.6349977 1234.20515262 1151.96847534 1172.29444885 C1151.9393467 1170.67163683 1151.9393467 1170.67163683 1151.9096296 1169.01604073 C1151.69922778 1157.84563012 1151.36314378 1146.68186527 1150.9340992 1135.51772976 C1150.87683657 1133.99621503 1150.87683657 1133.99621503 1150.81841712 1132.44396264 C1151.02273392 1112.11555942 1151.02273392 1112.11555942 1143.80273438 1093.94897461 C1138.69219995 1089.31027144 1132.83805256 1085.6015365 1127.0390625 1081.890625 C1126.04084473 1081.24657715 1125.04262695 1080.6025293 1124.01416016 1079.93896484 C1103.94736647 1067.05200456 1083.49616462 1054.83822844 1062.88574219 1042.84912109 C1059.5820614 1040.92704848 1056.28277102 1038.99753591 1052.984375 1037.06640625 C1042.84391514 1031.13231755 1032.67952276 1025.24363178 1022.47094727 1019.42749023 C1015.58347428 1015.50238509 1008.71534905 1011.54448503 1001.8515625 1007.578125 C993.26945105 1002.61926019 984.67316603 997.68634399 976.06271362 992.77694702 C965.79244577 986.92092048 955.55178534 981.01723971 945.34887695 975.04443359 C939.16603778 971.42663508 932.96604447 967.84043571 926.75390625 964.27319336 C895.90052392 946.55042584 895.90052392 946.55042584 881.046875 937.0390625 C874.0728562 932.66401257 866.58776992 930.44500858 858.4140625 929.828125 C856.03419414 934.82194713 854.80028207 939.29916364 854.2890625 944.828125 C854.18260556 945.94027982 854.18260556 945.94027982 854.07399797 947.07490242 C852.17429277 968.05106146 852.14551946 989.15648656 851.89852655 1010.20309725 C851.86855089 1012.74482955 851.83741629 1015.28654579 851.80611515 1017.82826209 C851.29324907 1059.91511282 851.21306156 1102.00290258 851.14874211 1144.09238673 C851.131295 1155.3306322 851.10799573 1166.56886384 851.08432788 1177.80709766 C851.04210008 1197.88815759 851.00285895 1217.96922193 850.96630859 1238.05029297 C850.96414579 1239.23791012 850.96198299 1240.42552728 850.95975465 1241.64913283 C850.94001093 1252.50731953 850.92048205 1263.36550661 850.90103912 1274.22369385 C850.88801721 1281.49532073 850.87494501 1288.76694753 850.86181641 1296.03857422 C850.85965754 1297.23496608 850.85749867 1298.43135794 850.85527438 1299.6640041 C850.81893969 1319.73913963 850.77899833 1339.81426644 850.73651361 1359.88938987 C850.71071236 1372.15909399 850.68797438 1384.42879583 850.66953003 1396.69851325 C850.65668531 1405.10192882 850.64049888 1413.50533401 850.62188089 1421.90873875 C850.61133571 1426.71879563 850.60213776 1431.52884299 850.59718513 1436.33890915 C850.57527289 1456.56890893 850.39752781 1476.78862946 849.96472168 1497.01437378 C849.94540103 1497.95643874 849.92608037 1498.8985037 849.90617424 1499.86911608 C849.13282999 1536.77859746 849.13282999 1536.77859746 846.4140625 1546.828125 C840.41654856 1547.27037376 836.85209405 1546.02822941 831.7265625 1543.265625 C831.02523193 1542.89993408 830.32390137 1542.53424316 829.60131836 1542.1574707 C821.44583768 1537.86623854 813.5449038 1533.24900679 805.84790039 1528.18188477 C788.35807615 1516.68169795 769.97207129 1506.64964528 751.66479492 1496.52441406 C731.17098144 1485.17744032 710.91385471 1473.40667626 690.63183594 1461.68701172 C686.31158607 1459.19123156 681.98983263 1456.69806203 677.66796875 1454.20507812 C674.41909754 1452.33102937 671.17048618 1450.45653072 667.921875 1448.58203125 C663.56340862 1446.06743064 659.20394059 1443.55457839 654.84375 1441.04296875 C643.36099353 1434.42671383 631.89445349 1427.78422489 620.45263672 1421.09741211 C613.12093771 1416.81567583 605.77123269 1412.56592493 598.4140625 1408.328125 C590.06607702 1403.51960605 581.73170479 1398.68894226 573.4140625 1393.828125 C557.72058916 1384.66118897 542.00877075 1375.524773 526.17016602 1366.61035156 C522.41984544 1364.49894938 518.67518407 1362.37766882 514.93212891 1360.25341797 C513.31706424 1359.33924815 511.69973895 1358.42905405 510.07958984 1357.52392578 C499.31190389 1351.49642784 491.17966938 1346.17328749 487.25 1333.9140625 C481.92856239 1314.2695031 481.0988302 1293.86929353 480.32617188 1273.62817383 C480.2846358 1272.5723969 480.24309973 1271.51661998 480.20030499 1270.42884982 C479.13805659 1242.88350621 478.98604027 1215.32700859 478.85377297 1187.76501671 C478.82795079 1182.41895555 478.79795783 1177.07292959 478.76564026 1171.72690392 C478.27133915 1089.7979234 478.08693708 1007.86731496 477.88800049 925.93719482 C477.87928193 922.35046384 477.87055422 918.76373289 477.86181641 915.17700195 C477.85965754 914.29041269 477.85749867 913.40382342 477.85527438 912.49036781 C477.81886783 897.57958896 477.77898725 882.6688215 477.73651361 867.75805873 C477.71320881 859.53100439 477.69154195 851.30395305 477.67442322 843.07688332 C477.60228008 800.67173141 477.60228008 800.67173141 476.95898438 758.2722168 C476.93981492 757.39580713 476.92064547 756.51939746 476.90089512 755.61642992 C476.65649363 744.82199664 476.21782959 734.04604712 475.64417267 723.26417255 C475.37710239 718.23242865 475.1759733 713.19938726 474.98828125 708.1640625 C474.79878906 707.39320313 474.60929687 706.62234375 474.4140625 705.828125 C472.64747946 704.82027573 472.64747946 704.82027573 470.4140625 703.828125 C468.54934427 702.72644533 466.69501278 701.60711372 464.84765625 700.4765625 C463.73656494 699.79851563 462.62547363 699.12046875 461.48071289 698.421875 C460.89049347 698.0609375 460.30027405 697.7 459.69216919 697.328125 C445.01397127 688.35664144 430.23923907 679.55471814 415.4140625 670.828125 C414.82669312 670.48223328 414.23932373 670.13634155 413.63415527 669.77996826 C397.00750049 659.98981661 380.33175966 650.28820097 363.60693359 640.66650391 C360.40162107 638.82096152 357.19849458 636.97168338 353.99609375 635.12109375 C339.93346236 626.99537877 325.84449105 618.9166478 311.73802185 610.86737061 C307.56726317 608.48724442 303.39841937 606.1037896 299.23046875 603.71875 C287.54884296 597.03512723 275.85811998 590.36867855 264.13330078 583.76098633 C258.94580762 580.83453521 253.76934745 577.88979022 248.60546875 574.921875 C234.53771099 566.83946118 220.40457767 558.9093602 206.09277344 551.26367188 C203.51934095 549.88454473 200.95410494 548.4912699 198.390625 547.09375 C196.877779 546.27571825 195.36476952 545.45798874 193.8515625 544.640625 C193.1913208 544.27783447 192.5310791 543.91504395 191.85083008 543.54125977 C187.79165996 541.36683626 183.84430614 540.03559327 179.4140625 538.828125 C178.54234271 549.76243519 178.25037128 560.61863317 178.21717072 571.58346558 C178.20840439 573.34136518 178.19924266 575.09926284 178.18972591 576.85715854 C178.16488707 581.67565899 178.14597089 586.4941666 178.12818737 591.31269759 C178.11203247 595.49060161 178.09247528 599.6684871 178.07292021 603.84637639 C178.01881855 615.40764964 177.97167405 626.96894248 177.92763034 638.53025803 C177.89417784 647.30966709 177.85889577 656.08906723 177.82270908 664.86846542 C177.51305993 740.38833684 177.31423185 815.90841197 176.92580053 1063.22626406 C176.9210985 1066.83097144 176.91639458 1070.43567882 176.91168785 1074.0403862 C176.91051708 1074.93707651 176.90934631 1075.83376682 176.90814005 1076.75762956 C176.88261745 1096.28159626 176.85562673 1115.80556086 176.82849942 1135.32952539 C176.6908779 1234.40596874 176.56468847 1333.48242547 176.13464213 1867.68791679 C176.13220313 1871.79067979 176.12975802 1875.89344278 176.12731313 1879.99620577 C176.06675583 1981.6357532 176.01036855 2083.27530288 175.88963214 2313.60777203 C175.8809208 2330.70335475 175.87219146 2347.79893747 175.86345418 2364.89452019 C175.86181714 2368.09817564 175.86018118 2371.30183108 175.8585453 2374.50548653 C175.83376509 2423.01749823 175.80822673 2471.52950933 175.78000641 2520.04151917 C175.77911349 2521.57739761 175.77911349 2521.57739761 175.77820253 2523.14430391 C175.7657123 2544.61903084 175.75304945 2566.09375767 175.74014938 2587.56848435 C175.73411772 2597.61215401 175.7281347 2607.6558237 175.72218323 2617.69949341 C175.72159778 2618.68644497 175.72101234 2619.67339654 175.72040915 2620.69025573 C175.7031257 2649.86838498 175.68834815 2679.04651456 175.67565917 2708.22464616 C175.6564812 2752.27346512 175.63428721 2796.32228119 175.60351562 2840.37109375 C175.60293011 2841.21105205 175.60234459 2842.05101034 175.60174133 2842.91642192 C175.54111598 2929.51116288 175.41643936 3016.10415387 174.4140625 3154.828125 C174.39375757 3157.18419134 174.37345761 3159.54025773 174.35316277 3161.89632416 C174.29652721 3168.43699904 174.23840122 3174.97765951 174.17907715 3181.51831055 C174.17053957 3182.46181991 174.16200199 3183.40532928 174.15320569 3184.37742984 C172.37719431 3378.64578468 172.37719431 3378.64578468 164.5390625 3420.453125 C164.33337646 3421.58923218 164.33337646 3421.58923218 164.12353516 3422.74829102 C162.57678193 3430.00465386 159.52687064 3435.65798489 153.3515625 3439.9375 C147.87295609 3443.29258045 142.14436591 3446.18223132 136.4140625 3449.078125 C126.18402799 3454.32853102 116.24340042 3459.86976057 106.4140625 3465.828125 C102.4992698 3468.18541186 98.58157618 3470.5378636 94.6640625 3472.890625 C93.6107373 3473.52411865 92.55741211 3474.1576123 91.47216797 3474.81030273 C83.35883147 3479.68254611 75.20825791 3484.4879541 67.0390625 3489.265625 C47.89935105 3500.46030384 28.81767813 3511.75124957 9.81640625 3523.1796875 C9.10210449 3523.60411133 8.38780273 3524.02853516 7.65185547 3524.46582031 C6.04333909 3525.44503932 4.4559275 3526.45924074 2.88330078 3527.49511719 C2.02849121 3528.04586914 1.17368164 3528.59662109 0.29296875 3529.1640625 C-0.47329834 3529.67243652 -1.23956543 3530.18081055 -2.02905273 3530.70458984 C-5.44352356 3532.20496173 -7.88590614 3532.19510179 -11.5859375 3531.828125 C-14.46240234 3530.59741211 -14.46240234 3530.59741211 -17.296875 3528.85546875 C-18.36381592 3528.21077637 -19.43075684 3527.56608398 -20.5300293 3526.90185547 C-21.67377797 3526.18995953 -22.81741104 3525.47787782 -23.9609375 3524.765625 C-25.16158391 3524.03378719 -26.36317968 3523.30350482 -27.56567383 3522.57470703 C-30.03859752 3521.07319445 -32.50640865 3519.56378885 -34.97021484 3518.04736328 C-40.37808532 3514.72189479 -45.82728894 3511.46537705 -51.2734375 3508.203125 C-52.29735596 3507.58759766 -53.32127441 3506.97207031 -54.3762207 3506.33789062 C-64.39559612 3500.32009571 -74.49027297 3494.43478213 -84.59765625 3488.56640625 C-87.60752104 3486.81556987 -90.61299195 3485.05741909 -93.6171875 3483.296875 C-111.10354431 3473.0532288 -128.66936274 3462.98136915 -146.5234375 3453.390625 C-154.89972806 3448.8861152 -163.18197193 3444.24323146 -171.3984375 3439.453125 C-172.35806396 3438.89439697 -173.31769043 3438.33566895 -174.30639648 3437.76000977 C-179.99418225 3434.42175329 -185.58370878 3430.95424348 -191.13598633 3427.39550781 C-202.94990799 3419.8374234 -215.21543371 3413.01097276 -227.39649963 3406.06962585 C-228.00686569 3405.72180557 -228.61723175 3405.37398529 -229.24609375 3405.015625 C-230.16557045 3404.49165886 -230.16557045 3404.49165886 -231.10362244 3403.95710754 C-250.66211952 3392.80592015 -270.10774227 3381.45943977 -289.54492188 3370.09863281 C-305.19392338 3360.95371532 -320.87970184 3351.87435747 -336.5859375 3342.828125 C-349.22896859 3335.54618929 -361.86718286 3328.25753258 -374.4609375 3320.890625 C-384.27873046 3315.14976725 -394.14316777 3309.4928041 -404.02294922 3303.85961914 C-411.89101102 3299.3727711 -419.74388413 3294.86030996 -427.5859375 3290.328125 C-436.59698913 3285.12350725 -445.6155028 3279.93216285 -454.6484375 3274.765625 C-455.52426483 3274.26462784 -455.52426483 3274.26462784 -456.41778564 3273.75350952 C-464.73695092 3268.99762459 -473.08942943 3264.30383033 -481.4609375 3259.640625 C-490.96060981 3254.34297367 -500.35325672 3248.88779126 -509.69921875 3243.32421875 C-515.98293994 3239.58398616 -522.29444211 3235.8918118 -528.60641479 3232.19955444 C-544.70890272 3222.77984125 -544.70890272 3222.77984125 -552.2734375 3218.203125 C-568.42655893 3208.46622602 -584.86202414 3199.20393443 -601.33618164 3190.02416992 C-609.40357721 3185.51753839 -617.39309246 3180.88753428 -625.36474609 3176.21411133 C-632.9942143 3171.74510417 -640.6560137 3167.3346736 -648.3359375 3162.953125 C-648.91892609 3162.62042603 -649.50191467 3162.28772705 -650.10256958 3161.94494629 C-654.26280298 3159.57111165 -658.42422256 3157.19936106 -662.5859375 3154.828125 C-667.33675951 3152.12123118 -672.08696431 3149.41326127 -676.8359375 3146.703125 C-677.41852325 3146.37074829 -678.00110901 3146.03837158 -678.60134888 3145.69592285 C-686.68767114 3141.08062091 -694.74134154 3136.41216536 -702.7734375 3131.703125 C-712.02644981 3126.27849354 -721.35991685 3121.01137588 -730.72998047 3115.79199219 C-737.15955115 3112.20466076 -743.53532343 3108.54467177 -749.86523438 3104.78491211 C-756.54206231 3100.82906593 -763.28158602 3096.98413591 -770.0234375 3093.140625 C-779.26521935 3087.87063351 -788.49771986 3082.58549036 -797.7109375 3077.265625 C-798.77642822 3076.65041992 -799.84191895 3076.03521484 -800.93969727 3075.40136719 C-805.22519251 3072.92618299 -809.51004619 3070.44988933 -813.79492188 3067.97363281 C-817.01662025 3066.11209828 -820.23864829 3064.25113661 -823.4609375 3062.390625 C-824.52699219 3061.77509766 -825.59304688 3061.15957031 -826.69140625 3060.52539062 C-834.09310788 3056.25586165 -841.50958142 3052.01287126 -848.93225098 3047.77996826 C-859.20440987 3041.92199665 -869.44622863 3036.01522652 -879.65332031 3030.04443359 C-886.90834262 3025.80172346 -894.17968313 3021.58814992 -901.4609375 3017.390625 C-902.54205811 3016.76720215 -903.62317871 3016.1437793 -904.73706055 3015.50146484 C-910.17527307 3012.366757 -915.61574708 3009.23602917 -921.05859375 3006.109375 C-933.24436596 2999.10306241 -945.37402547 2992.01169687 -957.45385742 2984.82421875 C-966.47652623 2979.46388059 -975.55673478 2974.2120303 -984.65576172 2968.98266602 C-990.77789994 2965.46025643 -996.86751664 2961.89527696 -1002.90942383 2958.23730469 C-1011.69348269 2952.93085608 -1020.58829169 2947.81042594 -1029.45849609 2942.64990234 C-1032.46809907 2940.8967675 -1035.47484269 2939.13884885 -1038.48046875 2937.37890625 C-1053.78734922 2928.41993559 -1069.17612828 2919.60823025 -1084.5859375 2910.828125 C-1089.33675951 2908.12123118 -1094.08696431 2905.41326127 -1098.8359375 2902.703125 C-1099.41852325 2902.37074829 -1100.00110901 2902.03837158 -1100.60134888 2901.69592285 C-1108.68767114 2897.08062091 -1116.74134154 2892.41216536 -1124.7734375 2887.703125 C-1134.02504212 2882.27931881 -1143.35726393 2877.01333622 -1152.72558594 2871.79418945 C-1159.20176633 2868.18044013 -1165.62774538 2864.4982665 -1172.00585938 2860.71459961 C-1178.31649086 2856.97349003 -1184.66693597 2853.30317842 -1191.0234375 2849.640625 C-1192.13066162 2849.00261963 -1193.23788574 2848.36461426 -1194.37866211 2847.70727539 C-1196.64930818 2846.39923023 -1198.92006108 2845.09137052 -1201.19091797 2843.78369141 C-1206.65763734 2840.63480444 -1212.12165879 2837.48124464 -1217.5859375 2834.328125 C-1219.75520567 2833.0768183 -1221.9244765 2831.82551622 -1224.09375 2830.57421875 C-1228.40195401 2828.08881598 -1232.70916539 2825.60170523 -1237.015625 2823.11328125 C-1248.77695121 2816.31911708 -1260.55328769 2809.55214612 -1272.3508606 2802.82116699 C-1280.88179593 2797.95360514 -1289.3956111 2793.05716483 -1297.8984375 2788.140625 C-1311.85049249 2780.07857533 -1325.85785517 2772.11624895 -1339.9453125 2764.29296875 C-1351.58653848 2757.82200302 -1363.07952399 2751.19949308 -1374.39794922 2744.18017578 C-1389.24290172 2735.00684986 -1404.3647185 2726.32181863 -1419.53437805 2717.70137024 C-1423.08158818 2715.68541181 -1426.62484661 2713.66277063 -1430.1640625 2711.6328125 C-1442.51794223 2704.5471391 -1454.93220388 2697.57277801 -1467.36572266 2690.62792969 C-1470.61098194 2688.81412746 -1473.85460318 2686.99743115 -1477.09765625 2685.1796875 C-1478.16387207 2684.5822876 -1479.23008789 2683.9848877 -1480.32861328 2683.36938477 C-1482.44355358 2682.18358949 -1484.55782182 2680.99659468 -1486.67138672 2679.80834961 C-1491.35085438 2677.18102582 -1496.03668956 2674.57308117 -1500.76953125 2672.04296875 C-1509.51837724 2667.34744639 -1517.23436734 2662.58498983 -1524.5859375 2655.828125 C-1525.28332031 2655.22226563 -1525.98070312 2654.61640625 -1526.69921875 2653.9921875 C-1537.37412577 2644.22343201 -1536.4632967 2627.95548659 -1537.10763443 2614.43365902 C-1537.14963838 2613.56881734 -1537.19164234 2612.70397567 -1537.23491914 2611.81292667 C-1537.65558477 2602.84136391 -1537.90913353 2593.86831859 -1538.1137867 2584.88958073 C-1538.13422034 2584.02233145 -1538.15465397 2583.15508218 -1538.17570681 2582.26155263 C-1538.67827073 2560.79148379 -1538.93581611 2539.31952005 -1539.14035034 2517.84483337 C-1539.15072756 2516.7824341 -1539.16110478 2515.72003483 -1539.17179646 2514.62544164 C-1539.74593025 2455.7539607 -1539.7300081 2396.881671 -1539.71760608 2338.00809976 C-1539.71527927 2326.5375851 -1539.7155513 2315.06707234 -1539.71733856 2303.59655762 C-1539.71746773 2302.75799256 -1539.71759691 2301.91942749 -1539.71772999 2301.05545137 C-1539.71826355 2297.63748539 -1539.71881229 2294.21951942 -1539.71938027 2290.80155345 C-1539.72460953 2259.30941386 -1539.72505538 2227.81727602 -1539.72223282 2196.32513618 C-1539.71951743 2166.01171406 -1539.7184876 2135.69829276 -1539.71975327 2105.38487053 C-1539.71983075 2103.46476579 -1539.7199079 2101.54466105 -1539.71998474 2099.62455631 C-1539.72029532 2091.90445227 -1539.720614 2084.18434823 -1539.7209445 2076.46424419 C-1539.72186058 2054.89605129 -1539.72243186 2033.3278584 -1539.72273064 2011.75966549 C-1539.72274428 2010.77827815 -1539.72275793 2009.79689081 -1539.72277199 2008.78576446 C-1539.72318002 1977.610625 -1539.72206087 1946.43548579 -1539.71988106 1915.26034641 C-1539.71981081 1914.25227369 -1539.71974056 1913.24420097 -1539.71966818 1912.20558059 C-1539.71852384 1895.84507948 -1539.7173041 1879.48457838 -1539.71607801 1863.12407728 C-1539.71122353 1798.27794861 -1539.71144853 1733.43182202 -1539.71630859 1668.58569336 C-1539.71753023 1652.23374462 -1539.71874147 1635.88179589 -1539.71988106 1619.52984715 C-1539.71995151 1618.52238401 -1539.72002195 1617.51492088 -1539.72009454 1616.47692856 C-1539.72225748 1585.32907822 -1539.72316373 1554.18122806 -1539.72273064 1523.03337765 C-1539.72271705 1522.05273796 -1539.72270347 1521.07209828 -1539.72268947 1520.06174224 C-1539.72237671 1498.51511235 -1539.72174251 1476.96848248 -1539.72082013 1455.42185262 C-1539.72049113 1447.70918791 -1539.72017803 1439.9965232 -1539.71986942 1432.28385849 C-1539.71979203 1430.36593158 -1539.7197133 1428.44800468 -1539.71963323 1426.53007777 C-1539.71837212 1396.24410732 -1539.71976868 1365.95813778 -1539.72248337 1335.67216745 C-1539.72526896 1304.25175096 -1539.72417246 1272.83133653 -1539.71895207 1241.41092033 C-1539.71839997 1238.00431137 -1539.71786324 1234.59770241 -1539.71733856 1231.19109344 C-1539.71720836 1230.35530641 -1539.71707815 1229.51951937 -1539.716944 1228.65840545 C-1539.71524153 1217.24275677 -1539.71569982 1205.82711021 -1539.71810509 1194.41146168 C-1539.73059144 1135.06141636 -1539.71443723 1075.71379961 -1539.14035034 1016.36582947 C-1539.12563087 1014.80566709 -1539.12563087 1014.80566709 -1539.11061404 1013.21398628 C-1538.90550065 991.51519991 -1538.60917671 969.82063504 -1538.1059742 948.12654972 C-1538.0867346 947.27568766 -1538.067495 946.42482559 -1538.04767239 945.54817983 C-1537.77910641 933.86057385 -1537.33308944 922.18979893 -1536.7109375 910.515625 C-1536.67395133 909.82082004 -1536.63696516 909.12601508 -1536.59885819 908.41015543 C-1535.27676019 884.14628922 -1535.27676019 884.14628922 -1528.59423828 877.46582031 C-1523.97330168 873.69761672 -1519.02265692 870.44031387 -1514.0234375 867.203125 C-1512.80798585 866.40590913 -1511.5929024 865.60813165 -1510.37817383 864.80981445 C-1488.85545068 850.71130404 -1466.74699892 837.56960814 -1444.3984375 824.828125 C-1443.47885254 824.30025391 -1442.55926758 823.77238281 -1441.61181641 823.22851562 C-1435.41770999 819.72110427 -1429.09906954 816.69353557 -1422.5859375 813.828125 C-1418.0958213 811.81038816 -1414.10996088 809.5533937 -1410.1171875 806.6640625 C-1404.30929894 802.56518743 -1398.27391224 798.92933851 -1392.1484375 795.328125 C-1391.28029922 794.81539032 -1391.28029922 794.81539032 -1390.3946228 794.29229736 C-1380.52470907 788.4648599 -1370.54109954 782.86298731 -1360.50195312 777.33178711 C-1352.16559561 772.73168838 -1343.9241555 767.98872115 -1335.71411133 763.16748047 C-1328.03750309 758.66267474 -1320.31989172 754.23333487 -1312.5859375 749.828125 C-1300.8509293 743.1405313 -1289.16875456 736.36584444 -1277.51269531 729.54150391 C-1263.13356302 721.12369022 -1248.73154581 712.74709634 -1234.29296875 704.43164062 C-1227.08371336 700.27708165 -1219.8926024 696.09266297 -1212.7109375 691.890625 C-1203.44035562 686.46844117 -1194.12656948 681.12488429 -1184.79547119 675.80789185 C-1176.69885736 671.19328374 -1168.62815052 666.53710539 -1160.5859375 661.828125 C-1152.03048819 656.82057861 -1143.44529056 651.86729218 -1134.8359375 646.953125 C-1134.25600037 646.62190643 -1133.67606323 646.29068787 -1133.07855225 645.94943237 C-1127.04393746 642.50322021 -1121.00543371 639.06402193 -1114.95852661 635.63941956 C-1098.43090206 626.29397928 -1098.43090206 626.29397928 -1082.34765625 616.2109375 C-1067.75624263 606.79310727 -1052.27754833 598.62191224 -1037.1171875 590.16479492 C-1026.34107562 584.14863695 -1015.63015814 578.01980254 -1004.92196655 571.88397217 C-1000.78492385 569.51364138 -996.64521844 567.14801889 -992.50390625 564.78515625 C-977.91371771 556.45960303 -963.34857668 548.09154725 -948.80371094 539.68701172 C-943.39923105 536.56487895 -937.99246338 533.44671296 -932.5859375 530.328125 C-930.41926 529.07814378 -928.25259333 527.82814379 -926.0859375 526.578125 C-861.0859375 489.078125 -861.0859375 489.078125 -857.83544922 487.20288086 C-855.67036679 485.95376982 -853.50532768 484.70458371 -851.34033203 483.45532227 C-845.89978044 480.31610191 -840.45846534 477.17821937 -835.015625 474.04296875 C-824.52361656 467.99757341 -814.04112074 461.93702281 -803.5859375 455.828125 C-792.04318315 449.08376623 -780.46574437 442.40054347 -768.88134766 435.72802734 C-765.57678762 433.82284982 -762.27440271 431.91395512 -758.97265625 430.00390625 C-747.81447379 423.55122066 -736.63513265 417.14042155 -725.40722656 410.80981445 C-708.04023703 401.01446323 -690.73356717 391.11613952 -673.52368164 381.04711914 C-665.1357644 376.14090016 -656.72004786 371.2839084 -648.29858398 366.43554688 C-642.01745128 362.81659438 -635.75089244 359.17422884 -629.49707031 355.50830078 C-619.46740455 349.63048845 -609.37777308 343.87629929 -599.22241211 338.21850586 C-590.71576699 333.47531492 -582.25614989 328.65311408 -573.80728149 323.8081665 C-566.59662997 319.67431228 -559.36708777 315.57807602 -552.10229492 311.53979492 C-535.40073042 302.2546733 -518.94870242 292.55604245 -502.640625 282.59765625 C-502.06497299 282.24615005 -501.48932098 281.89464386 -500.89622498 281.53248596 C-500.31969681 281.18040573 -499.74316864 280.8283255 -499.14916992 280.46557617 C-485.23829973 271.97102735 -471.17119337 263.80063848 -456.99121094 255.76464844 C-451.5072544 252.64601184 -446.04680936 249.48695405 -440.5859375 246.328125 C-431.56083461 241.11134621 -422.51665778 235.92897428 -413.4609375 230.765625 C-403.8281981 225.27290278 -394.23255967 219.72003601 -384.66357422 214.11694336 C-376.99991294 209.63622987 -369.29892113 205.22309272 -361.5859375 200.828125 C-351.86469244 195.28826567 -342.17698882 189.69437568 -332.51904297 184.04467773 C-321.99509125 177.89045758 -311.43213613 171.80442504 -300.86816406 165.71923828 C-295.43933808 162.59132352 -290.01274469 159.45954052 -284.5859375 156.328125 C-282.41928167 155.07810621 -280.252615 153.82810622 -278.0859375 152.578125 C-277.0134375 151.959375 -275.9409375 151.340625 -274.8359375 150.703125 C-271.5859375 148.828125 -268.3359375 146.953125 -265.0859375 145.078125 C-263.4774292 144.15012085 -263.4774292 144.15012085 -261.83642578 143.20336914 C-259.66817486 141.9524802 -257.49988053 140.70166648 -255.33154297 139.45092773 C-249.93875835 136.34014165 -244.54671657 133.22808262 -239.15625 130.11328125 C-227.39387177 123.31850936 -215.61578243 116.55219344 -203.81799316 109.81915283 C-192.12526133 103.14526895 -180.46082418 96.42290218 -168.80371094 89.68701172 C-163.39923105 86.56487895 -157.99246338 83.44671296 -152.5859375 80.328125 C-150.41926 79.07814378 -148.25259333 77.82814379 -146.0859375 76.578125 C-133.0859375 69.078125 -133.0859375 69.078125 -129.83544922 67.20288086 C-127.67036679 65.95376982 -125.50532768 64.70458371 -123.34033203 63.45532227 C-117.89978044 60.31610191 -112.45846534 57.17821937 -107.015625 54.04296875 C-93.59588988 46.31091626 -80.19792266 38.54310888 -66.83007812 30.72167969 C-63.91422529 29.0197415 -60.99485699 27.32409347 -58.07391357 25.63092041 C-37.15185863 13.78296235 -37.15185863 13.78296235 -17.40234375 0.1328125 C-12.1762286 -3.62099924 -5.56951343 -2.52394869 0 0 Z M-206.5234375 541.203125 C-207.23508057 541.56398193 -207.94672363 541.92483887 -208.67993164 542.29663086 C-210.20713265 543.07373835 -211.73305293 543.85336692 -213.2578125 544.63525391 C-214.76892042 545.40950656 -216.28184471 546.18022823 -217.796875 546.94677734 C-229.80062683 553.0260796 -241.32523641 559.77559501 -252.828125 566.75 C-260.03932073 571.11797288 -267.30721621 575.38638444 -274.5859375 579.640625 C-275.20725555 580.00377808 -275.82857361 580.36693115 -276.46871948 580.74108887 C-281.80608091 583.86037937 -281.80608091 583.86037937 -283.72941589 584.98394775 C-286.96909603 586.87781377 -290.20186598 588.78255385 -293.42578125 590.703125 C-301.90063533 595.74894389 -310.49005006 600.5365816 -319.1628418 605.234375 C-329.06305471 610.60606702 -338.83076192 616.19838187 -348.5859375 621.828125 C-350.0702124 622.68446533 -350.0702124 622.68446533 -351.58447266 623.55810547 C-355.87024018 626.03120631 -360.15577153 628.50471391 -364.44042969 630.97973633 C-372.4758709 635.61886909 -380.52719903 640.22964843 -388.5859375 644.828125 C-400.86847027 651.83753074 -413.12351676 658.89384996 -425.36816406 665.96923828 C-430.77264395 669.09137105 -436.17941162 672.20953704 -441.5859375 675.328125 C-443.752615 676.57810622 -445.91928167 677.82810621 -448.0859375 679.078125 C-461.0859375 686.578125 -461.0859375 686.578125 -464.33691406 688.45361328 C-466.50041226 689.70183534 -468.66382393 690.95020739 -470.82714844 692.19873047 C-476.29158767 695.35217756 -481.75757395 698.50288596 -487.2265625 701.6484375 C-497.33731558 707.46700224 -507.43164475 713.30756545 -517.4609375 719.265625 C-525.74519343 724.18587424 -534.08859258 728.99728562 -542.4609375 733.765625 C-554.23813519 740.47336804 -565.96285521 747.26683125 -577.65917969 754.11474609 C-596.35522699 765.05976277 -615.10403562 775.9111008 -633.87695312 786.72363281 C-637.15524812 788.61210993 -640.43322235 790.50114166 -643.7109375 792.390625 C-644.78988281 793.01259766 -645.86882813 793.63457031 -646.98046875 794.27539062 C-654.15465752 798.41500977 -661.31149313 802.58344919 -668.4609375 806.765625 C-678.27732208 812.50565921 -688.14059244 818.16135837 -698.01855469 823.79443359 C-709.15746254 830.14736395 -720.2652633 836.55359131 -731.36816406 842.96923828 C-736.77264395 846.09137105 -742.17941162 849.20953704 -747.5859375 852.328125 C-749.752615 853.57810622 -751.91928167 854.82810621 -754.0859375 856.078125 C-786.5859375 874.828125 -786.5859375 874.828125 -819.0859375 893.578125 C-820.1586792 894.19703613 -821.2314209 894.81594727 -822.33666992 895.45361328 C-824.5008193 896.70211722 -826.66504443 897.95048987 -828.8293457 899.19873047 C-834.28515923 902.34554158 -839.73958934 905.49470671 -845.19140625 908.6484375 C-855.42344298 914.56470996 -865.66583828 920.45965223 -875.9609375 926.265625 C-894.52288909 936.73771184 -913.0466792 947.23464239 -931.29248047 958.2512207 C-948.10619752 968.3865922 -965.1738676 978.07489187 -982.32543945 987.62475586 C-989.52826504 991.6456103 -996.66250674 995.77221963 -1003.7734375 999.953125 C-1011.30804404 1004.38168092 -1018.89344316 1008.67989975 -1026.5859375 1012.828125 C-1035.35370201 1017.55669177 -1043.97377136 1022.50352919 -1052.5612793 1027.55126953 C-1059.30055534 1031.50878338 -1066.081609 1035.38097943 -1072.8984375 1039.203125 C-1085.29821552 1046.17387999 -1097.52484231 1053.42796633 -1109.73547363 1060.72357178 C-1111.66088827 1061.87286357 -1113.58759557 1063.01996128 -1115.51464844 1064.16650391 C-1118.8684692 1066.16198002 -1122.22021435 1068.16090028 -1125.57052612 1070.16226196 C-1126.84773531 1070.92473946 -1128.12548486 1071.68631274 -1129.40383911 1072.4468689 C-1151.99962531 1083.98817431 -1151.99962531 1083.98817431 -1166.5859375 1102.828125 C-1171.26357671 1123.87750143 -1169.7348381 1146.56443704 -1169.71666217 1167.98195851 C-1169.71436873 1171.99231257 -1169.71790705 1176.00266254 -1169.72064209 1180.01301575 C-1169.7250575 1187.84082645 -1169.72414218 1195.66862748 -1169.72122945 1203.49643854 C-1169.71895818 1209.8677761 -1169.71867031 1216.23911098 -1169.71975327 1222.61044884 C-1169.7199065 1223.52209413 -1169.72005973 1224.43373942 -1169.72021761 1225.37301033 C-1169.72053738 1227.22584457 -1169.72086159 1229.0786788 -1169.7211902 1230.93151303 C-1169.72403273 1248.25213522 -1169.72077753 1265.57275208 -1169.71538983 1282.89337339 C-1169.71092518 1297.70406474 -1169.71169733 1312.51474825 -1169.71630859 1327.32543945 C-1169.72168002 1344.58533996 -1169.72375579 1361.84523582 -1169.72069633 1379.10513705 C-1169.72037783 1380.95154265 -1169.72006346 1382.79794826 -1169.71975327 1384.64435387 C-1169.71959899 1385.55246664 -1169.71944471 1386.46057942 -1169.71928576 1387.39621076 C-1169.71842812 1393.74661758 -1169.71986719 1400.0970214 -1169.72223282 1406.44742775 C-1169.72505976 1414.20570217 -1169.72423237 1421.96396649 -1169.71895207 1429.72223977 C-1169.71635332 1433.66855886 -1169.71524364 1437.61486121 -1169.71860123 1441.56118011 C-1172.58682399 1478.45195645 -1172.58682399 1478.45195645 -1164.5859375 1512.828125 C-1160.92473263 1514.65872744 -1157.39325288 1513.79271294 -1153.5859375 1512.828125 C-1143.47631918 1508.69868136 -1134.27451255 1502.89647877 -1125.05834961 1497.09619141 C-1114.84663535 1490.68229748 -1104.38297031 1484.72099094 -1093.91650391 1478.73535156 C-1088.46493798 1475.61354882 -1083.02598487 1472.46994203 -1077.5859375 1469.328125 C-1075.42194825 1468.07930014 -1073.25788567 1466.83060235 -1071.09375 1465.58203125 C-1070.02157227 1464.96344238 -1068.94939453 1464.34485352 -1067.84472656 1463.70751953 C-1064.56894184 1461.81832334 -1061.29237857 1459.93048391 -1058.015625 1458.04296875 C-1047.52361656 1451.99757341 -1037.04112074 1445.93702281 -1026.5859375 1439.828125 C-1015.03864234 1433.08111306 -1003.45691723 1426.39473182 -991.86816406 1419.71923828 C-986.43933808 1416.59132352 -981.01274469 1413.45954052 -975.5859375 1410.328125 C-973.41928167 1409.07810621 -971.252615 1407.82810622 -969.0859375 1406.578125 C-967.4771875 1405.65 -967.4771875 1405.65 -965.8359375 1404.703125 C-962.5859375 1402.828125 -959.3359375 1400.953125 -956.0859375 1399.078125 C-955.01359863 1398.45945557 -953.94125977 1397.84078613 -952.83642578 1397.20336914 C-950.66817486 1395.9524802 -948.49988053 1394.70166648 -946.33154297 1393.45092773 C-940.93875835 1390.34014165 -935.54671657 1387.22808262 -930.15625 1384.11328125 C-918.34964266 1377.29309863 -906.5256675 1370.5048924 -894.68121338 1363.75076294 C-886.62330538 1359.15418277 -878.59175964 1354.5148834 -870.5859375 1349.828125 C-860.81090985 1344.10564051 -850.98806794 1338.4696906 -841.1484375 1332.859375 C-833.28056345 1328.37256763 -825.42768348 1323.86047742 -817.5859375 1319.328125 C-807.97021729 1313.77045546 -798.33232431 1308.2527088 -788.6836853 1302.75250244 C-780.55896832 1298.11936813 -772.46648606 1293.43427713 -764.3984375 1288.703125 C-755.14548431 1283.27839522 -745.81195567 1278.0113745 -736.44189453 1272.79199219 C-730.01578814 1269.20659364 -723.64116421 1265.55217047 -717.31762695 1261.78930664 C-712.341687 1258.83719636 -707.32345861 1255.96502088 -702.29083252 1253.11065674 C-687.34905073 1244.63578163 -672.62662913 1235.87744213 -658.14453125 1226.6328125 C-650.97794279 1222.11136333 -643.59446916 1218.18807171 -636.06933594 1214.30932617 C-628.16826058 1210.2048081 -620.49427175 1205.76315786 -612.82666016 1201.24072266 C-605.4885525 1196.91843706 -598.09048278 1192.71868024 -590.6484375 1188.578125 C-583.74770113 1184.73636391 -576.87377799 1180.86628091 -570.0859375 1176.828125 C-560.1138643 1170.9054442 -549.98894802 1165.25714408 -539.84521484 1159.63476562 C-537.67225361 1158.43027775 -535.5007013 1157.22324458 -533.33056641 1156.01367188 C-510.48049825 1143.29651055 -510.48049825 1143.29651055 -499.5859375 1139.828125 C-491.54320279 1157.467884 -495.37261095 1186.05991298 -495.06201172 1205.19116211 C-495.03112792 1207.06214909 -495.03112792 1207.06214909 -494.9996202 1208.97093379 C-494.21415405 1257.64636794 -494.21948433 1306.33409194 -494.05363851 1355.01465387 C-494.03116923 1361.58819905 -494.00756469 1368.16173995 -493.9838708 1374.73528081 C-493.70689355 1451.57978986 -493.52655638 1528.42421547 -493.45647565 1775.72269113 C-493.46085831 1798.6263133 -493.46040216 1821.5299309 -493.45602039 1844.43355303 C-493.44164796 1919.75527613 -493.42972964 1995.07707719 -493.9998498 2215.19979024 C-494.02071907 2219.75051905 -494.04110029 2224.30124956 -494.06097174 2228.85198283 C-494.42514061 2312.22081693 -494.42514061 2312.22081693 -495.06201172 2341.94506836 C-495.08098393 2342.84135928 -495.09995614 2343.73765021 -495.11950326 2344.66110146 C-496.28548704 2397.52767454 -496.28548704 2397.52767454 -500.5859375 2401.828125 C-508.47027713 2401.61112483 -514.29165784 2399.01905042 -521.2734375 2395.515625 C-522.36994629 2394.97583008 -523.46645508 2394.43603516 -524.59619141 2393.87988281 C-542.48804807 2384.99461797 -559.72448648 2375.07059096 -576.8671875 2364.83203125 C-583.04213009 2361.1449052 -589.24428917 2357.50689292 -595.4609375 2353.890625 C-604.24029962 2348.7800975 -613.01067293 2343.65453975 -621.7734375 2338.515625 C-622.9989377 2337.79711171 -624.22444227 2337.07860588 -625.44995117 2336.36010742 C-631.00883137 2333.10068055 -636.56684693 2329.83979048 -642.12301636 2326.57574463 C-655.42928503 2318.75923698 -668.75462493 2310.97935293 -682.12963867 2303.28076172 C-689.29622525 2299.15442902 -696.44631465 2295.00092133 -703.5859375 2290.828125 C-724.80743475 2278.43199802 -746.1253135 2266.21470153 -767.54443359 2254.16357422 C-781.3374754 2246.40118808 -795.04658624 2238.52245009 -808.63671875 2230.41015625 C-816.65388216 2225.64093285 -824.75433262 2221.07692608 -832.9609375 2216.640625 C-835.71142792 2215.14168173 -838.45985411 2213.63911171 -841.20605469 2212.13232422 C-842.64683228 2211.34276391 -844.08963146 2210.55685667 -845.53613281 2209.77783203 C-853.96429119 2205.19688582 -858.3911707 2200.1785568 -861.5390625 2191.0703125 C-866.92340589 2170.85263094 -865.89077116 2149.04962842 -865.88795269 2128.3045969 C-865.8896149 2124.25811602 -865.90278844 2120.21166896 -865.91448975 2116.16520691 C-865.93321899 2109.17513792 -865.94502175 2102.18508605 -865.95202827 2095.19499588 C-865.96228041 2085.06279961 -865.98439848 2074.93065466 -866.00941419 2064.79848532 C-866.04987405 2048.31879275 -866.08238691 2031.83909521 -866.10913086 2015.359375 C-866.11072816 2014.37625554 -866.11232546 2013.39313607 -866.11397117 2012.38022511 C-866.11557007 2011.39593948 -866.11716897 2010.41165386 -866.11881632 2009.3975414 C-866.14149326 1995.45089569 -866.16613801 1981.50425527 -866.19311523 1967.55761719 C-866.19501138 1966.57632326 -866.19690753 1965.59502934 -866.19886113 1964.58399923 C-866.23075294 1948.16183935 -866.2665112 1931.73968911 -866.30415672 1915.31754148 C-866.32704649 1905.22348796 -866.34605255 1895.12944086 -866.35982346 1885.03537069 C-866.36942805 1878.10890256 -866.38230382 1871.18244548 -866.39763231 1864.25598766 C-866.40630311 1860.27523617 -866.41345788 1856.29449816 -866.41627312 1852.31373787 C-863.55622726 1816.20377378 -863.55622726 1816.20377378 -871.5859375 1782.828125 C-878.75237438 1784.7275703 -885.18374749 1787.32500802 -891.7734375 1790.703125 C-892.71904541 1791.18217285 -893.66465332 1791.6612207 -894.63891602 1792.15478516 C-904.49238644 1797.20047657 -914.10314561 1802.66014095 -923.69921875 1808.17529297 C-927.50861088 1810.35641482 -931.33533733 1812.50606012 -935.16210938 1814.65649414 C-947.04030564 1821.33645929 -958.82086162 1828.17714319 -970.57861328 1835.06640625 C-989.29848234 1846.03268123 -1008.07693175 1856.89548994 -1026.87695312 1867.72363281 C-1030.15524812 1869.61210993 -1033.43322235 1871.50114166 -1036.7109375 1873.390625 C-1037.78988281 1874.01259766 -1038.86882812 1874.63457031 -1039.98046875 1875.27539062 C-1047.15465949 1879.41501091 -1054.31132148 1883.58374053 -1061.4609375 1887.765625 C-1078.50769349 1897.72512993 -1095.58734481 1907.63504518 -1112.9609375 1917.015625 C-1143.71262329 1931.14614363 -1143.71262329 1931.14614363 -1166.5859375 1953.828125 C-1167.87682374 1960.28720405 -1167.85591582 1967.08476918 -1168.11380005 1973.64915466 C-1168.17582947 1975.16141779 -1168.17582947 1975.16141779 -1168.23911202 1976.70423168 C-1168.62559421 1986.3648262 -1168.9295136 1996.02566498 -1169.14013672 2005.69165039 C-1169.17158016 2007.12693594 -1169.17158016 2007.12693594 -1169.20365882 2008.59121716 C-1169.88074942 2040.87002354 -1169.73261481 2073.16231933 -1169.72123791 2105.44648593 C-1169.7189287 2112.17274514 -1169.71867771 2118.89900182 -1169.71975327 2125.62526131 C-1169.7199065 2126.59444181 -1169.72005973 2127.56362231 -1169.72021761 2128.56217192 C-1169.72053742 2130.53274027 -1169.72086164 2132.50330862 -1169.7211902 2134.47387696 C-1169.72401608 2152.78559757 -1169.72080213 2171.09731311 -1169.71538983 2189.40903289 C-1169.71090795 2205.05744045 -1169.71171471 2220.70584061 -1169.71630859 2236.35424805 C-1169.72167757 2254.65078018 -1169.72375873 2272.94730794 -1169.72069633 2291.24384075 C-1169.72037786 2293.19881093 -1169.72006349 2295.15378112 -1169.71975327 2297.1087513 C-1169.71959899 2298.07000482 -1169.71944471 2299.03125834 -1169.71928576 2300.02164076 C-1169.71842879 2306.73703301 -1169.7198653 2313.45242244 -1169.72223282 2320.16781425 C-1169.72505626 2328.35365249 -1169.72423873 2336.53948115 -1169.71895207 2344.72531831 C-1169.71635162 2348.88649609 -1169.71524697 2353.04765799 -1169.71860123 2357.2088356 C-1173.13037545 2398.03468454 -1173.13037545 2398.03468454 -1162.5859375 2434.828125 C-1159.19627434 2437.91513966 -1155.44413641 2440.37492329 -1151.5859375 2442.828125 C-1150.90982422 2443.26157227 -1150.23371094 2443.69501953 -1149.53710938 2444.14160156 C-1124.39755498 2460.16668316 -1098.45636431 2475.02496851 -1072.5859375 2489.828125 C-1071.46799805 2490.46814453 -1070.35005859 2491.10816406 -1069.19824219 2491.76757812 C-1060.99778674 2496.46081877 -1052.79248142 2501.14554096 -1044.5859375 2505.828125 C-1039.8771884 2508.51489711 -1035.16870832 2511.20213905 -1030.4609375 2513.890625 C-1029.88039612 2514.22214569 -1029.29985474 2514.55366638 -1028.70172119 2514.89523315 C-1019.24500217 2520.29679509 -1009.80801968 2525.73204949 -1000.37890625 2531.18164062 C-993.01277721 2535.43613819 -985.63077226 2539.66216888 -978.24108887 2543.87554932 C-965.95761237 2550.8798179 -953.72390925 2557.96577881 -941.52148438 2565.11035156 C-936.54615201 2568.02173201 -931.56579222 2570.92448912 -926.5859375 2573.828125 C-920.60813447 2577.31428649 -914.63087754 2580.80136726 -908.65625 2584.29296875 C-897.22374281 2590.97195979 -885.77058355 2597.61359874 -874.29736328 2604.22241211 C-866.05624559 2608.97227032 -857.8372684 2613.75907541 -849.625 2618.55859375 C-842.29310027 2622.84034622 -834.94326512 2627.09023439 -827.5859375 2631.328125 C-819.23795291 2636.13664344 -810.90350566 2640.96718183 -802.5859375 2645.828125 C-791.03871264 2652.57525614 -779.45691631 2659.2615187 -767.86816406 2665.93701172 C-762.43933808 2669.06492648 -757.01274469 2672.19670948 -751.5859375 2675.328125 C-749.41928167 2676.57814379 -747.252615 2677.82814378 -745.0859375 2679.078125 C-732.08593751 2686.578125 -732.08593751 2686.578125 -728.83642578 2688.45288086 C-726.66817486 2689.7037698 -724.49988053 2690.95458352 -722.33154297 2692.20532227 C-716.93875835 2695.31610835 -711.54671657 2698.42816738 -706.15625 2701.54296875 C-694.39322583 2708.33811378 -682.61482703 2715.10540872 -670.815979 2721.83810425 C-662.39262693 2726.64511538 -653.98326516 2731.47575405 -645.5859375 2736.328125 C-633.70673518 2743.19136346 -621.79935265 2750.00450234 -609.88273621 2756.80245972 C-605.78895827 2759.13878508 -601.7001955 2761.48372447 -597.61328125 2763.83203125 C-586.23981316 2770.3620748 -574.83507219 2776.81687421 -563.33200073 2783.1159668 C-551.88568774 2789.38435918 -540.6314983 2795.8747269 -529.5859375 2802.828125 C-510.00145066 2815.06232438 -489.87474193 2826.41258114 -469.86816406 2837.93701172 C-464.43933804 2841.06492651 -459.01277194 2844.19675663 -453.5859375 2847.328125 C-452.51214844 2847.94751953 -451.43835937 2848.56691406 -450.33203125 2849.20507812 C-444.93906234 2852.31590833 -439.54687386 2855.42807649 -434.15625 2858.54296875 C-422.39322583 2865.33811378 -410.61482703 2872.10540872 -398.815979 2878.83810425 C-389.31896424 2884.25782971 -379.84261124 2889.71265051 -370.375 2895.18359375 C-362.4585986 2899.7551718 -354.52578779 2904.29746282 -346.5859375 2908.828125 C-334.30624494 2915.83591987 -322.05419427 2922.890872 -309.8125 2929.96484375 C-306.55069743 2931.8484755 -303.28731906 2933.72934821 -300.0234375 2935.609375 C-286.59789648 2943.34370831 -273.19461703 2951.11469125 -259.82128906 2958.93896484 C-256.92503562 2960.63012159 -254.02578671 2962.31595251 -251.12521362 2963.99967957 C-236.26778497 2972.6271267 -221.45547699 2981.26784362 -207.33984375 2991.0859375 C-204.04512699 2993.17025477 -202.40991619 2993.57629474 -198.5859375 2992.828125 C-194.99324474 2989.33253204 -193.73470652 2986.37527472 -193.44763374 2981.46015634 C-193.44134925 2980.57543112 -193.43506476 2979.69070589 -193.42858983 2978.7791708 C-193.41898802 2977.7554167 -193.40938621 2976.73166259 -193.39949343 2975.67688564 C-193.39394124 2974.55427517 -193.38838905 2973.4316647 -193.38266861 2972.27503574 C-193.37297675 2971.08142704 -193.36328489 2969.88781835 -193.35329934 2968.65803969 C-193.32753506 2965.3486848 -193.30619357 2962.03935654 -193.28687515 2958.72996133 C-193.26519664 2955.17805145 -193.23819699 2951.62618112 -193.2120425 2948.07430191 C-193.16192434 2941.12612034 -193.11770718 2934.17791263 -193.07586174 2927.22967674 C-193.04149363 2921.5249234 -193.00523968 2915.82018476 -192.96797456 2910.11544965 C-192.55507993 2846.59356909 -192.4396879 2783.07320928 -192.45426892 2719.55015444 C-192.45662089 2708.9041422 -192.45630752 2698.25813199 -192.45453644 2687.61211967 C-192.45434268 2686.43399936 -192.45434268 2686.43399936 -192.45414501 2685.23207863 C-192.45361122 2682.02863964 -192.45306245 2678.82520065 -192.45249473 2675.62176167 C-192.4472883 2646.21773117 -192.44681103 2616.81370254 -192.44964218 2587.40967178 C-192.45238429 2558.9088857 -192.45337496 2530.4081005 -192.45212173 2501.9073143 C-192.45204425 2500.08372072 -192.45196709 2498.26012714 -192.45189026 2496.43653357 C-192.45157944 2489.09646876 -192.45126075 2481.75640395 -192.4509305 2474.41633915 C-192.45001441 2453.89155722 -192.44944306 2433.36677528 -192.44914436 2412.84199333 C-192.44912389 2411.44062748 -192.44912389 2411.44062748 -192.44910301 2410.0109512 C-192.44869504 2380.33576202 -192.44981227 2350.66057309 -192.45199394 2320.98538399 C-192.45206419 2320.0268034 -192.45213444 2319.06822281 -192.45220682 2318.08059432 C-192.45335023 2302.53808424 -192.45457045 2286.99557417 -192.45579699 2271.4530641 C-192.46043359 2212.63501357 -192.46072747 2153.8169651 -192.45602078 2094.99891456 C-192.45465585 2077.94023027 -192.45336747 2060.88154597 -192.45212173 2043.82286167 C-192.45205334 2042.88708001 -192.45198494 2041.95129836 -192.45191447 2040.98715968 C-192.44520148 1948.630495 -192.44594984 1856.273829 -193.0625 1209.08203125 C-193.06522406 1207.86739011 -193.06794812 1206.65274897 -193.07075473 1205.40130053 C-193.28000604 1112.11105028 -193.5293012 1018.82093287 -193.85302734 925.53100586 C-193.85557065 924.79734814 -193.85811395 924.06369042 -193.86073432 923.30780065 C-194.04865435 869.14765275 -194.28024443 814.98774317 -194.5859375 760.828125 C-194.59109375 759.91459259 -194.59625 759.00106018 -194.6015625 758.05984497 C-194.74097885 733.43733779 -194.89523686 708.8149528 -195.07130814 684.19267988 C-195.08553924 682.19648929 -195.09958082 680.20029735 -195.11361694 678.20410538 C-195.3157514 649.57911822 -195.62109606 620.95596566 -196.02398109 592.33314109 C-196.05412949 590.16129201 -196.08308206 587.9894302 -196.11167908 585.8175602 C-196.32427183 569.8034117 -196.67014552 553.81935322 -197.5859375 537.828125 C-200.89375892 537.828125 -203.62761119 539.72663803 -206.5234375 541.203125 Z " fill="#009CC4" transform="translate(1878.5859375,265.171875)"/>
</svg>
